Fly_normalized_Motion_pl01
version=1
nRows=14
nColumns=43
inDegrees=yes
endheader
time		pelvis_tilt		pelvis_list		pelvis_rotation		pelvis_tx		pelvis_ty		pelvis_tz		hip_flexion_r		hip_adduction_r		hip_rotation_r		knee_angle_r		ankle_angle_r		subtalar_angle_r		mtp_angle_r		hip_flexion_l		hip_adduction_l		hip_rotation_l		knee_angle_l		ankle_angle_l		subtalar_angle_l		mtp_angle_l		lumbar_extension		lumbar_bending		lumbar_rotation		neck_flexion		neck_lateral_bending		neck_rotation		arm_flex_r		arm_add_r		arm_rot_r		elbow_flex_r		pro_sup_r		wrist_flex_r		wrist_dev_r		hand_finger_flex_r		arm_flex_l		arm_add_l		arm_rot_l		elbow_flex_l		pro_sup_l		wrist_flex_l		wrist_dev_l		hand_finger_flex_l		
0.516667		1.692254		0.358433		88.285573		-0.021406		1.919873		1.206423		46.820777		-3.668669		-2.647422		-69.055126		-14.624938		-1.981907		14.334027		41.303611		-1.771989		-0.736382		-67.190671		-18.119807		-20.626790		2.601499		-57.758345		0.874077		3.389250		7.800783		-1.412032		-1.075799		86.391669		-26.455755		36.229442		65.080674		85.326008		-35.818899		-2.904721		19.864964		80.147914		-17.625988		20.725501		67.070464		114.696044		-19.852319		15.665108		61.002435		
0.521187		1.775732		0.970013		88.210692		-0.021578		1.915266		1.197888		46.102351		-3.551040		-2.782139		-67.283621		-15.239953		-1.937761		14.484174		40.328136		-1.966597		-0.981027		-65.101512		-18.457657		-20.657304		2.766456		-58.442703		0.896701		3.345403		7.708423		-1.501995		-0.850830		84.136487		-27.146529		35.780328		64.909554		86.070681		-35.558547		-2.752446		20.166638		77.839607		-18.196384		20.139154		67.058053		115.100954		-19.454929		15.871671		61.022126		
0.525707		1.868800		1.470219		88.136970		-0.021687		1.910183		1.189567		45.478548		-3.392793		-2.901872		-65.502832		-15.634182		-1.969426		14.630194		39.410419		-2.150031		-1.182615		-62.916547		-18.675027		-20.729297		2.942825		-59.003168		0.925085		3.316193		7.762474		-1.559219		-0.678524		82.000317		-27.783906		35.447577		64.501153		86.801718		-35.238850		-2.535809		20.471334		75.662139		-18.775562		19.677457		66.815789		115.528067		-18.989474		16.087601		61.052168		
0.530227		1.982492		1.998666		88.063338		-0.021719		1.904829		1.180755		44.773288		-3.248128		-3.090204		-63.745849		-16.234199		-1.959805		14.615820		38.486003		-2.394175		-1.468415		-60.913144		-18.999236		-20.751557		3.047327		-59.538374		0.957802		3.298540		7.523904		-1.640882		-0.477150		79.606084		-28.435575		34.944194		64.268969		87.275328		-35.120826		-2.423044		20.692313		73.205371		-19.352122		18.971592		66.791341		115.726911		-18.678387		16.197252		61.119541		
0.534747		2.098635		2.701820		87.951278		-0.021744		1.899680		1.171908		43.791806		-3.061841		-3.239080		-61.908214		-16.718971		-2.091025		14.659564		37.262524		-2.643634		-1.802086		-58.777038		-19.295482		-20.863335		3.295863		-60.262831		0.963377		3.261494		7.451574		-1.685497		-0.278586		77.301178		-28.929195		34.287082		63.770371		88.234437		-34.648680		-2.132498		21.216918		70.830411		-19.911025		18.167383		66.635390		116.282853		-17.941023		16.258241		61.192148		
0.539268		2.178184		2.930256		87.943124		-0.021940		1.893129		1.163263		43.378614		-2.961191		-3.375250		-60.199995		-17.113491		-2.040179		14.609846		36.629902		-2.782323		-2.027377		-56.755563		-19.541591		-20.823970		3.316200		-60.418457		1.041002		3.193947		7.256640		-1.699373		-0.165093		74.981195		-29.565443		34.023531		63.290992		88.291539		-34.662337		-1.918272		21.367462		68.420832		-20.507758		17.656286		66.386621		116.290660		-17.823603		16.341973		61.230011		
0.543788		2.242087		3.736085		87.849483		-0.022135		1.887627		1.153970		42.220631		-2.877705		-3.548124		-58.420432		-17.716389		-2.115009		14.603062		35.247373		-2.975528		-2.500679		-54.693459		-19.963153		-20.952311		3.364774		-61.182262		1.041981		3.027438		7.001710		-1.750320		0.101141		72.509046		-29.893290		33.136436		62.741576		88.650716		-34.270108		-1.703922		21.938156		65.720063		-21.015075		16.466514		66.374299		116.671776		-17.510201		16.368411		61.289018		
0.548308		2.262287		4.293576		87.837254		-0.022417		1.881290		1.144867		41.358332		-2.864974		-3.709203		-56.718545		-18.213692		-2.058659		14.628588		34.154175		-3.068995		-2.879671		-52.661237		-20.324884		-20.944903		3.421234		-61.648838		1.075806		2.836772		6.726476		-1.776228		0.271504		70.070611		-30.334715		32.489745		62.120494		88.970846		-33.939645		-1.448243		22.429810		63.105659		-21.487890		15.441795		66.206393		117.013607		-17.213309		16.431398		61.313422		
0.552828		2.274459		4.622696		87.873909		-0.022852		1.874103		1.135886		40.748522		-2.879833		-3.883236		-55.091448		-18.553678		-1.986567		14.624033		33.344429		-3.114067		-3.201888		-50.708331		-20.580707		-20.861118		3.428778		-61.839100		1.158634		2.659083		6.460870		-1.804756		0.397230		67.684150		-30.942743		32.175867		61.509574		89.009908		-33.723759		-1.258397		22.697493		60.551121		-22.030454		14.717257		65.940836		117.175685		-17.110278		16.498608		61.361299		
0.557348		2.236010		5.461453		87.880388		-0.023265		1.867722		1.126378		39.545663		-2.997478		-4.155137		-53.510217		-19.195575		-1.839847		14.653561		31.908267		-3.175632		-3.769319		-48.772403		-21.035843		-20.673362		3.476053		-62.539184		1.182256		2.359630		6.016626		-1.849432		0.616832		65.115418		-31.258179		31.263842		60.836062		89.225301		-33.211264		-1.140117		23.172972		57.719313		-22.359635		13.157349		65.819433		117.627874		-16.911018		16.397031		61.510500		
0.561869		2.221334		5.824291		87.935888		-0.023811		1.859952		1.117188		38.911761		-3.094081		-4.437989		-52.033542		-19.716409		-1.711421		14.586116		31.080525		-3.200758		-4.184046		-46.997141		-21.384966		-20.368712		3.465925		-62.692234		1.269088		2.153757		5.553608		-1.833166		0.704702		62.580049		-31.839140		30.838176		60.240000		89.131298		-33.139391		-1.023266		23.303825		55.035313		-22.737763		12.076105		65.503196		117.578492		-16.964199		16.377450		61.642773		
0.566389		2.203484		6.691734		87.954521		-0.024236		1.853161		1.107674		37.593054		-3.167113		-4.708877		-50.436199		-20.237202		-1.639389		14.576831		29.564406		-3.257862		-4.788893		-45.093238		-21.675908		-19.948558		3.549844		-63.403838		1.297096		1.878136		5.270666		-1.836299		0.935576		60.034185		-32.177186		29.969177		59.485873		89.338138		-32.577649		-1.029710		23.675098		52.265434		-23.006757		10.436466		65.280195		117.817439		-16.773550		16.050201		62.041766		
0.570909		2.257466		7.513034		87.945139		-0.024520		1.845960		1.098182		36.290646		-3.156582		-5.061888		-48.843446		-20.630377		-1.602968		14.652602		28.092307		-3.377759		-5.329464		-43.247344		-21.854933		-19.445842		3.770280		-64.046017		1.330220		1.690368		4.971807		-1.832301		1.151296		57.526284		-32.623618		29.269818		58.733059		89.997172		-31.760094		-0.969988		24.060274		49.605342		-23.417768		9.099814		65.038139		118.103755		-16.344952		15.658738		62.601770		
0.575429		2.312418		7.884060		88.015060		-0.024984		1.837352		1.088754		35.594173		-3.231707		-5.568440		-47.483724		-21.358560		-1.442565		14.573876		27.297289		-3.474470		-5.774250		-41.732974		-22.388772		-18.924685		3.811749		-64.121105		1.442864		1.527668		4.302753		-1.733329		1.218094		54.795082		-33.099524		28.605590		58.106117		90.002204		-31.702471		-0.860469		24.131627		46.788613		-23.592952		7.577158		64.734670		117.736919		-16.557778		15.620802		62.721118		
